<?xml version="1.0" encoding="UTF-8" standalone="no"?>
<svg xmlns="http://www.w3.org/2000/svg" version="1.2" baseProfile="tiny" viewBox="0.00 0.00 100.00 100.00">
<path fill="#ec6e4c" d="
  M 77.38 59.52
  Q 73.87 53.90 68.34 54.60
  Q 67.73 54.68 67.75 54.07
  C 67.79 52.94 68.18 51.77 67.98 50.75
  C 66.92 45.53 60.67 42.21 56.17 46.06
  Q 55.68 46.47 55.60 45.84
  Q 54.94 40.53 50.87 37.26
  C 62.56 20.83 86.07 31.27 82.58 50.79
  Q 81.75 55.42 77.38 59.52
  Z"
/>
<path fill="#f2f2f1" d="
  M 50.87 37.26
  Q 54.94 40.53 55.60 45.84
  Q 55.68 46.47 56.17 46.06
  C 60.67 42.21 66.92 45.53 67.98 50.75
  C 68.18 51.77 67.79 52.94 67.75 54.07
  Q 67.73 54.68 68.34 54.60
  Q 73.87 53.90 77.38 59.52
  Q 79.33 67.45 73.89 70.62
  Q 71.50 72.01 66.41 72.03
  Q 47.63 72.07 28.97 71.88
  C 14.66 71.74 14.20 49.89 30.48 49.41
  Q 30.97 49.40 30.91 48.91
  C 29.54 37.50 41.55 30.31 50.87 37.26
  Z"
/>
</svg>
