<?xml version="1.0" encoding="UTF-8" standalone="no"?>
<svg xmlns="http://www.w3.org/2000/svg" version="1.2" baseProfile="tiny" viewBox="0.00 0.00 100.00 100.00">
<path fill="#48484a" d="
  M 70.06 49.97
  Q 68.39 45.95 63.82 44.68
  Q 62.59 44.33 62.80 42.96
  A 1.39 1.35 40.6 0 0 62.74 42.31
  Q 60.40 35.48 53.44 36.99
  Q 52.82 37.13 52.55 36.56
  Q 50.75 32.77 47.15 30.06
  C 50.64 22.26 61.12 24.01 62.87 32.37
  Q 62.98 32.87 63.44 32.66
  Q 69.19 30.02 71.28 35.85
  Q 71.47 36.39 71.30 36.94
  L 71.02 37.79
  A 0.52 0.52 0.0 0 0 71.53 38.47
  C 81.61 38.13 78.73 52.59 70.06 49.97
  Z"
/>
<path fill="#f2f2f1" d="
  M 46.67 31.09
  Q 51.40 33.83 51.82 38.86
  Q 51.85 39.25 52.19 39.05
  C 57.24 35.93 62.57 39.40 61.55 45.24
  Q 61.45 45.84 62.05 45.79
  Q 67.10 45.40 69.19 50.08
  C 70.89 57.71 66.13 59.75 59.47 59.74
  Q 49.49 59.72 39.56 59.82
  Q 39.47 59.72 39.39 59.61
  Q 40.22 58.64 39.20 57.60
  A 1.18 1.18 0.0 0 0 37.37 57.78
  Q 36.80 58.64 36.85 59.18
  Q 36.42 59.92 36.01 59.71
  Q 30.88 60.04 29.25 59.52
  C 18.47 56.10 20.72 42.25 31.81 41.68
  Q 32.34 41.66 32.31 41.13
  C 31.72 32.49 38.94 28.08 46.67 31.09
  Z"
/>
<path fill="#0a0c0b" d="
  M 47.15 30.06
  Q 50.75 32.77 52.55 36.56
  Q 52.82 37.13 53.44 36.99
  Q 60.40 35.48 62.74 42.31
  A 1.39 1.35 40.6 0 1 62.80 42.96
  Q 62.59 44.33 63.82 44.68
  Q 68.39 45.95 70.06 49.97
  L 69.19 50.08
  Q 67.10 45.40 62.05 45.79
  Q 61.45 45.84 61.55 45.24
  C 62.57 39.40 57.24 35.93 52.19 39.05
  Q 51.85 39.25 51.82 38.86
  Q 51.40 33.83 46.67 31.09
  Q 47.57 30.62 47.15 30.06
  Z"
/>
<path fill="#0a0c0b" d="
  M 39.39 59.61
  Q 37.52 60.85 36.85 59.18
  Q 36.80 58.64 37.37 57.78
  A 1.18 1.18 0.0 0 1 39.20 57.60
  Q 40.22 58.64 39.39 59.61
  Z"
/>
<path fill="#48484a" d="
  M 36.85 59.18
  Q 37.52 60.85 39.39 59.61
  Q 39.47 59.72 39.56 59.82
  L 38.36 61.22
  Q 38.00 61.64 37.50 61.39
  Q 36.63 60.95 36.01 59.71
  Q 36.42 59.92 36.85 59.18
  Z"
/>
<ellipse fill="#48484a" cx="0.00" cy="0.00" transform="translate(52.89,63.66) rotate(114.2)" rx="1.93" ry="1.55"/>
<rect fill="#48484a" x="-1.51" y="-2.74" transform="translate(43.59,66.28) rotate(23.0)" width="3.02" height="5.48" rx="1.06"/>
<rect fill="#48484a" x="-1.53" y="-2.81" transform="translate(35.04,67.36) rotate(22.3)" width="3.06" height="5.62" rx="1.09"/>
<rect fill="#48484a" x="-1.56" y="-2.43" transform="translate(49.53,72.56) rotate(20.2)" width="3.12" height="4.86" rx="1.17"/>
<ellipse fill="#48484a" cx="0.00" cy="0.00" transform="translate(41.29,72.44) rotate(108.8)" rx="1.75" ry="1.57"/>
</svg>
