<?xml version="1.0" encoding="UTF-8" standalone="no"?>
<svg xmlns="http://www.w3.org/2000/svg" version="1.2" baseProfile="tiny" viewBox="0.00 0.00 100.00 100.00">
<path fill="#48484a" d="
  M 62.45 41.68
  L 65.96 39.49
  Q 66.36 39.24 66.80 39.42
  Q 68.35 40.03 68.27 41.70
  A 0.98 0.98 0.0 0 1 67.77 42.52
  L 64.20 44.52
  Q 63.94 44.66 64.03 44.95
  L 64.12 45.26
  A 0.42 0.41 76.5 0 0 64.57 45.54
  Q 66.96 45.20 68.68 46.76
  A 1.04 1.03 24.3 0 1 69.01 47.62
  Q 68.86 49.11 67.69 49.44
  C 65.11 50.16 55.76 43.94 56.20 51.37
  A 1.24 1.21 19.7 0 0 56.61 52.21
  C 59.67 54.87 63.98 52.57 67.39 51.59
  Q 68.05 51.40 68.31 52.04
  L 68.97 53.69
  A 0.70 0.70 0.0 0 1 68.74 54.51
  Q 66.79 55.95 64.45 55.75
  A 0.46 0.46 0.0 0 0 64.18 56.60
  L 68.04 58.93
  A 0.93 0.93 0.0 0 1 68.29 60.30
  L 67.10 61.78
  Q 66.67 62.31 66.10 61.93
  L 62.66 59.55
  A 0.41 0.40 -75.1 0 0 62.03 59.92
  Q 62.19 61.60 62.59 63.03
  Q 63.23 65.28 61.38 65.52
  A 1.83 1.83 0.0 0 1 59.34 64.07
  C 58.91 61.88 58.05 56.58 55.73 55.66
  C 53.48 54.76 51.55 56.48 51.88 58.86
  C 52.20 61.14 55.81 63.91 57.37 65.53
  A 1.75 1.74 -48.4 0 1 57.50 67.81
  C 56.77 68.76 55.72 68.74 54.88 67.86
  Q 53.68 66.60 52.39 65.43
  Q 51.87 64.96 51.83 65.66
  C 51.72 67.41 52.83 70.33 50.38 71.05
  A 1.67 1.67 0.0 0 1 48.25 69.34
  L 48.47 65.75
  A 0.49 0.49 0.0 0 0 47.54 65.49
  Q 46.33 67.84 43.77 68.60
  A 1.95 1.48 -66.8 0 1 42.95 65.32
  C 44.77 63.70 48.22 60.97 48.43 58.43
  Q 48.65 55.67 45.75 55.58
  A 3.24 3.23 -80.9 0 0 42.56 57.89
  L 40.63 64.41
  A 1.62 1.61 19.5 0 1 38.46 65.44
  C 36.21 64.50 37.97 61.39 38.25 59.85
  Q 38.38 59.12 37.76 59.51
  L 34.50 61.57
  A 1.72 1.72 0.0 0 1 32.50 58.77
  Q 34.00 57.56 35.71 56.95
  A 0.62 0.62 0.0 0 0 35.46 55.75
  C 33.83 55.85 30.41 55.06 31.42 52.65
  A 1.61 1.60 19.3 0 1 33.33 51.73
  C 36.66 52.66 40.58 54.80 43.60 52.29
  Q 44.02 51.94 44.05 51.40
  C 44.33 45.17 36.34 48.56 33.61 49.46
  A 1.81 1.81 0.0 0 1 31.33 48.30
  C 30.51 45.78 34.47 45.59 35.88 45.25
  A 0.40 0.40 0.0 0 0 35.98 44.52
  L 32.48 42.58
  A 1.30 1.29 -55.5 0 1 32.12 40.62
  L 33.01 39.54
  A 0.82 0.82 0.0 0 1 34.07 39.38
  L 37.80 41.72
  A 0.44 0.44 0.0 0 0 38.43 41.14
  C 37.79 39.91 36.43 36.70 38.29 35.83
  A 1.73 1.73 0.0 0 1 40.69 36.93
  Q 41.61 40.23 42.75 44.00
  C 43.47 46.41 48.41 46.39 48.41 42.74
  C 48.41 40.48 44.61 37.39 43.11 35.99
  A 2.16 2.15 -55.4 0 1 42.65 33.46
  Q 43.13 32.49 44.26 32.72
  C 45.57 32.98 47.01 34.90 47.73 35.93
  A 0.49 0.48 18.2 0 0 48.59 35.50
  Q 47.79 33.16 48.69 30.87
  A 1.58 1.57 -42.8 0 1 51.66 30.98
  Q 52.29 33.03 51.73 35.12
  A 0.48 0.48 0.0 0 0 52.53 35.59
  L 55.20 32.95
  A 1.80 1.72 -88.5 0 1 57.56 35.56
  L 52.95 40.17
  A 3.36 3.36 0.0 0 0 52.38 44.16
  Q 53.87 46.89 56.09 45.36
  C 58.11 43.97 58.93 39.30 59.39 37.04
  Q 59.70 35.54 61.23 35.69
  C 64.15 36.00 62.29 39.69 61.83 41.21
  Q 61.52 42.26 62.45 41.68
  Z
  M 52.91 50.61
  A 2.80 2.80 0.0 0 0 50.11 47.81
  A 2.80 2.80 0.0 0 0 47.31 50.61
  A 2.80 2.80 0.0 0 0 50.11 53.41
  A 2.80 2.80 0.0 0 0 52.91 50.61
  Z"
/>
</svg>
