<?xml version="1.0" encoding="UTF-8" standalone="no"?>
<svg xmlns="http://www.w3.org/2000/svg" version="1.2" baseProfile="tiny" viewBox="0.00 0.00 100.00 100.00">
<path fill="#48484a" d="
  M 78.24 58.71
  Q 74.93 54.33 70.10 53.19
  Q 69.65 53.08 69.45 52.67
  C 68.65 50.97 68.66 48.98 67.72 47.59
  Q 63.95 42.01 56.78 43.99
  A 0.63 0.62 75.6 0 1 56.00 43.52
  Q 55.02 39.30 51.55 36.74
  Q 51.52 36.60 51.49 36.44
  A 0.40 0.40 0.0 0 1 51.59 36.09
  C 58.83 27.38 70.49 26.73 78.30 34.65
  C 84.46 40.90 84.56 52.00 78.24 58.71
  Z"
/>
<path fill="#f2f2f1" d="
  M 51.13 37.39
  Q 55.10 40.63 55.60 45.69
  Q 55.65 46.16 56.04 45.91
  C 62.18 42.11 69.47 46.50 67.73 53.87
  Q 67.59 54.46 68.20 54.43
  Q 74.26 54.11 77.36 59.57
  C 79.61 68.52 74.53 72.06 66.55 72.03
  Q 49.54 71.96 32.58 72.01
  Q 26.70 72.03 24.14 70.70
  C 12.97 64.92 18.40 49.58 30.33 49.44
  Q 30.81 49.43 30.78 48.96
  C 30.02 37.10 41.54 30.33 51.13 37.39
  Z"
/>
<path fill="#060707" d="
  M 51.55 36.74
  Q 55.02 39.30 56.00 43.52
  A 0.63 0.62 75.6 0 0 56.78 43.99
  Q 63.95 42.01 67.72 47.59
  C 68.66 48.98 68.65 50.97 69.45 52.67
  Q 69.65 53.08 70.10 53.19
  Q 74.93 54.33 78.24 58.71
  Q 77.63 58.90 77.36 59.57
  Q 74.26 54.11 68.20 54.43
  Q 67.59 54.46 67.73 53.87
  C 69.47 46.50 62.18 42.11 56.04 45.91
  Q 55.65 46.16 55.60 45.69
  Q 55.10 40.63 51.13 37.39
  L 51.55 36.74
  Z"
/>
</svg>
