<?xml version="1.0" encoding="UTF-8" standalone="no"?>
<svg xmlns="http://www.w3.org/2000/svg" version="1.2" baseProfile="tiny" viewBox="0.00 0.00 100.00 100.00">
<path fill="#ec6e4c" d="
  M 71.49 49.42
  Q 68.77 45.03 64.16 45.47
  Q 63.51 45.53 63.69 44.90
  L 64.12 43.36
  A 0.83 0.71 54.3 0 0 64.14 43.11
  C 63.31 37.54 59.25 36.55 54.51 38.47
  Q 54.01 38.67 53.97 38.14
  Q 53.68 34.19 50.36 31.59
  C 54.84 25.31 62.32 23.34 69.05 27.05
  C 77.24 31.54 78.19 43.04 71.49 49.42
  Z"
/>
<path fill="#f2f2f2" d="
  M 50.36 31.59
  Q 53.68 34.19 53.97 38.14
  Q 54.01 38.67 54.51 38.47
  C 59.25 36.55 63.31 37.54 64.14 43.11
  A 0.83 0.71 54.3 0 1 64.12 43.36
  L 63.69 44.90
  Q 63.51 45.53 64.16 45.47
  Q 68.77 45.03 71.49 49.42
  C 73.56 57.85 68.03 59.50 61.01 59.50
  Q 51.53 59.50 41.94 59.51
  Q 41.38 59.59 41.73 58.28
  A 0.72 0.72 0.0 0 0 41.38 57.47
  Q 39.44 56.37 38.25 59.52
  C 32.77 59.84 27.83 59.43 25.27 54.75
  C 21.59 48.02 26.80 41.83 33.92 41.36
  Q 34.46 41.32 34.39 40.79
  C 33.05 31.30 42.82 27.06 50.36 31.59
  Z"
/>
<path fill="#4a484a" d="
  M 41.94 59.51
  L 40.61 60.97
  A 0.94 0.94 0.0 0 1 39.72 61.26
  Q 38.52 61.02 38.25 59.52
  Q 39.44 56.37 41.38 57.47
  A 0.72 0.72 0.0 0 1 41.73 58.28
  Q 41.38 59.59 41.94 59.51
  Z"
/>
<ellipse fill="#4a484a" cx="0.00" cy="0.00" transform="translate(55.01,63.56) rotate(115.1)" rx="1.88" ry="1.52"/>
<rect fill="#4a484a" x="-1.53" y="-2.76" transform="translate(45.67,66.11) rotate(22.9)" width="3.06" height="5.52" rx="1.23"/>
<rect fill="#4a484a" x="-1.49" y="-2.77" transform="translate(37.09,67.28) rotate(22.3)" width="2.98" height="5.54" rx="1.07"/>
<rect fill="#4a484a" x="-1.47" y="-2.46" transform="translate(51.65,72.49) rotate(24.6)" width="2.94" height="4.92" rx="0.87"/>
<circle fill="#4a484a" cx="43.31" cy="72.40" r="1.58"/>
</svg>
