<?xml version="1.0" encoding="UTF-8" standalone="no"?>
<svg xmlns="http://www.w3.org/2000/svg" version="1.2" baseProfile="tiny" viewBox="0.00 0.00 100.00 100.00">
<path fill="#49484a" d="
  M 72.55 48.56
  L 67.62 44.80
  Q 67.22 44.49 66.71 44.52
  Q 65.32 44.62 65.04 43.28
  Q 63.38 35.28 55.43 36.58
  Q 54.92 36.67 54.70 36.20
  Q 53.31 33.29 50.69 31.08
  C 61.81 15.49 85.07 33.10 72.55 48.56
  Z"
/>
<path fill="#f2f2f2" d="
  M 50.35 31.57
  Q 53.56 34.47 53.89 38.44
  Q 53.93 38.88 54.33 38.71
  C 59.20 36.65 63.17 37.57 64.02 43.34
  Q 64.09 43.83 63.87 44.27
  L 63.51 44.97
  A 0.45 0.45 0.0 0 0 63.97 45.62
  Q 68.85 44.97 71.42 49.56
  C 73.55 57.51 68.32 59.42 61.58 59.47
  Q 51.81 59.54 41.95 59.49
  Q 41.38 59.62 41.73 58.28
  A 0.72 0.72 0.0 0 0 41.38 57.47
  Q 39.44 56.37 38.25 59.52
  C 32.77 59.84 27.83 59.43 25.27 54.75
  C 21.59 48.02 26.80 41.83 33.92 41.36
  Q 34.46 41.32 34.39 40.79
  C 33.05 31.30 42.82 27.06 50.35 31.57
  Z"
/>
<path fill="#1a1c1a" d="
  M 50.69 31.08
  Q 53.31 33.29 54.70 36.20
  Q 54.92 36.67 55.43 36.58
  Q 63.38 35.28 65.04 43.28
  Q 65.32 44.62 66.71 44.52
  Q 67.22 44.49 67.62 44.80
  L 72.55 48.56
  Q 71.56 49.08 71.42 49.56
  Q 68.85 44.97 63.97 45.62
  A 0.45 0.45 0.0 0 1 63.51 44.97
  L 63.87 44.27
  Q 64.09 43.83 64.02 43.34
  C 63.17 37.57 59.20 36.65 54.33 38.71
  Q 53.93 38.88 53.89 38.44
  Q 53.56 34.47 50.35 31.57
  Q 50.85 31.15 50.69 31.08
  Z"
/>
<path fill="#1a1c1a" d="
  M 41.95 59.49
  L 40.61 60.97
  A 0.93 0.92 -62.8 0 1 39.73 61.26
  Q 38.52 61.02 38.25 59.52
  Q 39.44 56.37 41.38 57.47
  A 0.72 0.72 0.0 0 1 41.73 58.28
  Q 41.38 59.62 41.95 59.49
  Z"
/>
<path fill="#49484a" d="
  M 55.39 65.33
  A 0.54 0.54 0.0 0 1 54.63 65.45
  L 53.93 64.94
  A 1.65 1.49 -53.9 0 1 53.70 62.73
  L 53.82 62.56
  A 1.65 1.49 -53.9 0 1 55.99 62.11
  L 56.70 62.62
  A 0.54 0.54 0.0 0 1 56.81 63.38
  L 55.39 65.33
  Z"
/>
<rect fill="#49484a" x="-1.53" y="-2.76" transform="translate(45.67,66.11) rotate(22.9)" width="3.06" height="5.52" rx="1.23"/>
<rect fill="#49484a" x="-1.49" y="-2.77" transform="translate(37.09,67.28) rotate(22.3)" width="2.98" height="5.54" rx="1.07"/>
<rect fill="#49484a" x="-1.47" y="-2.46" transform="translate(51.65,72.49) rotate(24.6)" width="2.94" height="4.92" rx="0.87"/>
<circle fill="#49484a" cx="43.31" cy="72.40" r="1.58"/>
</svg>
