<?xml version="1.0" encoding="UTF-8" standalone="no"?>
<svg xmlns="http://www.w3.org/2000/svg" version="1.2" baseProfile="tiny" viewBox="0.00 0.00 100.00 100.00">
<path fill="#48484a" d="
  M 73.44 52.35
  Q 70.98 47.16 65.51 46.29
  A 0.83 0.82 5.7 0 1 64.82 45.46
  C 64.93 40.84 61.75 37.09 57.03 37.29
  Q 55.28 37.36 53.55 37.52
  Q 53.11 37.56 52.97 37.15
  Q 51.20 32.11 46.44 29.19
  C 51.00 20.11 63.40 21.66 65.13 31.80
  Q 65.22 32.34 65.71 32.11
  Q 72.53 28.85 75.22 35.87
  A 1.52 1.51 -48.9 0 1 75.28 36.77
  L 74.97 38.21
  Q 74.86 38.72 75.37 38.74
  C 87.13 39.12 83.85 55.72 73.44 52.35
  Z"
/>
<path fill="#f2f2f1" d="
  M 45.55 30.00
  Q 50.99 32.85 52.27 39.08
  Q 52.38 39.62 52.87 39.36
  C 58.60 36.36 65.08 40.20 63.54 46.93
  Q 63.41 47.48 63.98 47.45
  Q 69.70 47.09 72.54 52.31
  C 74.94 61.18 69.20 64.00 61.59 63.98
  Q 52.31 63.95 43.04 64.11
  L 44.27 62.60
  Q 44.81 61.93 43.95 61.95
  L 40.32 62.02
  Q 39.36 62.04 39.89 61.24
  L 43.85 55.13
  Q 44.26 54.50 43.51 54.50
  L 38.04 54.50
  Q 37.50 54.50 37.25 54.98
  Q 35.20 58.91 33.39 62.89
  Q 33.24 63.22 32.98 63.43
  Q 32.53 63.78 32.39 63.81
  C 14.10 66.58 11.60 43.71 28.63 42.90
  Q 29.10 42.88 29.06 42.41
  C 28.21 32.64 36.54 26.56 45.55 30.00
  Z"
/>
<path fill="#0e100e" d="
  M 46.44 29.19
  Q 51.20 32.11 52.97 37.15
  Q 53.11 37.56 53.55 37.52
  Q 55.28 37.36 57.03 37.29
  C 61.75 37.09 64.93 40.84 64.82 45.46
  A 0.83 0.82 5.7 0 0 65.51 46.29
  Q 70.98 47.16 73.44 52.35
  Q 72.81 52.09 72.54 52.31
  Q 69.70 47.09 63.98 47.45
  Q 63.41 47.48 63.54 46.93
  C 65.08 40.20 58.60 36.36 52.87 39.36
  Q 52.38 39.62 52.27 39.08
  Q 50.99 32.85 45.55 30.00
  Q 46.43 29.98 46.44 29.19
  Z"
/>
<path fill="#ec6e4c" d="
  M 43.04 64.11
  L 32.46 76.86
  A 0.53 0.53 0.0 0 1 31.57 76.30
  L 35.74 67.16
  A 0.46 0.46 0.0 0 0 35.33 66.51
  L 32.03 66.49
  Q 31.52 66.49 31.67 66.00
  L 32.39 63.81
  Q 32.53 63.78 32.98 63.43
  Q 33.24 63.22 33.39 62.89
  Q 35.20 58.91 37.25 54.98
  Q 37.50 54.50 38.04 54.50
  L 43.51 54.50
  Q 44.26 54.50 43.85 55.13
  L 39.89 61.24
  Q 39.36 62.04 40.32 62.02
  L 43.95 61.95
  Q 44.81 61.93 44.27 62.60
  L 43.04 64.11
  Z"
/>
</svg>
