<?xml version="1.0" encoding="UTF-8" standalone="no"?>
<svg xmlns="http://www.w3.org/2000/svg" version="1.2" baseProfile="tiny" viewBox="0.00 0.00 128.00 128.00">
<path fill="#2d2d31" d="
  M 123.66 63.81
  A 59.79 59.79 0.0 0 1 63.87 123.60
  A 59.79 59.79 0.0 0 1 4.08 63.81
  A 59.79 59.79 0.0 0 1 63.87 4.02
  A 59.79 59.79 0.0 0 1 123.66 63.81
  Z
  M 70.1870 10.2138
  A 1.93 1.93 0.0 0 0 68.2403 8.3007
  L 59.2206 8.3794
  A 1.93 1.93 0.0 0 0 57.3075 10.3262
  L 57.3130 10.9462
  A 1.93 1.93 0.0 0 0 59.2597 12.8593
  L 68.2794 12.7806
  A 1.93 1.93 0.0 0 0 70.1925 10.8338
  L 70.1870 10.2138
  Z
  M 52.5828 11.2252
  A 2.12 2.12 0.0 0 0 49.8812 9.9250
  L 41.5380 12.8468
  A 2.12 2.12 0.0 0 0 40.2379 15.5483
  L 40.3172 15.7748
  A 2.12 2.12 0.0 0 0 43.0188 17.0750
  L 51.3620 14.1532
  A 2.12 2.12 0.0 0 0 52.6621 11.4517
  L 52.5828 11.2252
  Z
  M 87.3580 15.4753
  A 2.15 2.15 0.0 0 0 86.0155 12.7471
  L 77.6282 9.8919
  A 2.15 2.15 0.0 0 0 74.9001 11.2343
  L 74.8420 11.4047
  A 2.15 2.15 0.0 0 0 76.1845 14.1329
  L 84.5718 16.9881
  A 2.15 2.15 0.0 0 0 87.2999 15.6457
  L 87.3580 15.4753
  Z
  M 36.1765 17.8022
  A 2.17 2.17 0.0 0 0 33.1318 17.4176
  L 26.2101 22.7867
  A 2.17 2.17 0.0 0 0 25.8255 25.8313
  L 25.9235 25.9578
  A 2.17 2.17 0.0 0 0 28.9682 26.3424
  L 35.8899 20.9733
  A 2.17 2.17 0.0 0 0 36.2745 17.9287
  L 36.1765 17.8022
  Z
  M 101.7328 25.7334
  A 2.16 2.16 0.0 0 0 101.3606 22.7015
  L 94.4576 17.3083
  A 2.16 2.16 0.0 0 0 91.4257 17.6805
  L 91.3272 17.8066
  A 2.16 2.16 0.0 0 0 91.6994 20.8385
  L 98.6024 26.2317
  A 2.16 2.16 0.0 0 0 101.6343 25.8595
  L 101.7328 25.7334
  Z
  M 107.9034 29.6725
  A 2.05 2.05 0.0 0 0 105.0676 29.0697
  L 104.7321 29.2876
  A 2.05 2.05 0.0 0 0 104.1293 32.1234
  L 108.9766 39.5875
  A 2.05 2.05 0.0 0 0 111.8124 40.1903
  L 112.1479 39.9724
  A 2.05 2.05 0.0 0 0 112.7507 37.1366
  L 107.9034 29.6725
  Z
  M 23.5379 32.3227
  A 2.09 2.09 0.0 0 0 22.9486 29.4264
  L 22.6818 29.2497
  A 2.09 2.09 0.0 0 0 19.7854 29.8390
  L 14.8621 37.2773
  A 2.09 2.09 0.0 0 0 15.4514 40.1736
  L 15.7182 40.3503
  A 2.09 2.09 0.0 0 0 18.6146 39.7610
  L 23.5379 32.3227
  Z
  M 94.77 79.05
  C 104.11 67.30 96.19 50.14 80.44 49.99
  Q 79.90 49.98 79.78 49.45
  C 75.08 28.69 45.62 31.86 44.69 53.27
  Q 44.67 53.78 44.17 53.86
  Q 29.71 56.27 29.20 69.48
  C 28.95 76.05 32.48 81.69 38.37 84.28
  Q 41.74 85.76 49.83 85.75
  Q 63.35 85.74 76.88 85.76
  C 84.63 85.76 90.16 84.85 94.77 79.05
  Z
  M 116.6233 45.8065
  A 2.09 2.09 0.0 0 0 114.0871 44.2887
  L 113.7767 44.3666
  A 2.09 2.09 0.0 0 0 112.2588 46.9028
  L 114.4367 55.5735
  A 2.09 2.09 0.0 0 0 116.9729 57.0913
  L 117.2833 57.0134
  A 2.09 2.09 0.0 0 0 118.8012 54.4772
  L 116.6233 45.8065
  Z
  M 15.4256 47.0758
  A 2.07 2.07 0.0 0 0 13.9267 44.5612
  L 13.5971 44.4778
  A 2.07 2.07 0.0 0 0 11.0825 45.9768
  L 8.8944 54.6242
  A 2.07 2.07 0.0 0 0 10.3933 57.1388
  L 10.7229 57.2222
  A 2.07 2.07 0.0 0 0 13.2375 55.7232
  L 15.4256 47.0758
  Z
  M 119.6212 63.9833
  A 2.04 2.04 0.0 0 0 117.7591 61.7798
  L 117.3605 61.7463
  A 2.04 2.04 0.0 0 0 115.1569 63.6084
  L 114.3988 72.6367
  A 2.04 2.04 0.0 0 0 116.2609 74.8402
  L 116.6595 74.8737
  A 2.04 2.04 0.0 0 0 118.8631 73.0116
  L 119.6212 63.9833
  Z
  M 12.6027 63.7556
  A 1.94 1.94 0.0 0 0 10.5134 61.9775
  L 9.9353 62.0240
  A 1.94 1.94 0.0 0 0 8.1571 64.1133
  L 8.8773 73.0644
  A 1.94 1.94 0.0 0 0 10.9666 74.8425
  L 11.5447 74.7960
  A 1.94 1.94 0.0 0 0 13.3229 72.7067
  L 12.6027 63.7556
  Z
  M 116.5469 82.1672
  A 2.10 2.10 0.0 0 0 115.4680 79.4002
  L 115.1934 79.2796
  A 2.10 2.10 0.0 0 0 112.4264 80.3584
  L 108.8731 88.4528
  A 2.10 2.10 0.0 0 0 109.9520 91.2198
  L 110.2266 91.3404
  A 2.10 2.10 0.0 0 0 112.9936 90.2616
  L 116.5469 82.1672
  Z
  M 15.3451 80.4046
  A 2.10 2.10 0.0 0 0 12.5800 79.3209
  L 12.3234 79.4330
  A 2.10 2.10 0.0 0 0 11.2398 82.1981
  L 14.7949 90.3354
  A 2.10 2.10 0.0 0 0 17.5600 91.4191
  L 17.8166 91.3070
  A 2.10 2.10 0.0 0 0 18.9002 88.5419
  L 15.3451 80.4046
  Z
  M 23.3387 95.2626
  A 2.16 2.16 0.0 0 0 20.2865 95.1400
  L 20.1689 95.2485
  A 2.16 2.16 0.0 0 0 20.0463 98.3008
  L 26.0413 104.7974
  A 2.16 2.16 0.0 0 0 29.0935 104.9200
  L 29.2111 104.8115
  A 2.16 2.16 0.0 0 0 29.3337 101.7592
  L 23.3387 95.2626
  Z
  M 107.8309 98.1740
  A 1.97 1.97 0.0 0 0 107.7239 95.3901
  L 107.3424 95.0368
  A 1.97 1.97 0.0 0 0 104.5584 95.1437
  L 98.3891 101.8060
  A 1.97 1.97 0.0 0 0 98.4961 104.5899
  L 98.8776 104.9432
  A 1.97 1.97 0.0 0 0 101.6616 104.8363
  L 107.8309 98.1740
  Z
  M 44.3602 113.8828
  A 2.17 2.17 0.0 0 0 43.4834 110.9418
  L 35.7074 106.7373
  A 2.17 2.17 0.0 0 0 32.7664 107.6141
  L 32.6998 107.7372
  A 2.17 2.17 0.0 0 0 33.5766 110.6782
  L 41.3526 114.8827
  A 2.17 2.17 0.0 0 0 44.2936 114.0059
  L 44.3602 113.8828
  Z
  M 94.9980 107.6095
  A 2.17 2.17 0.0 0 0 92.0586 106.7277
  L 84.3280 110.8902
  A 2.17 2.17 0.0 0 0 83.4461 113.8296
  L 83.5220 113.9705
  A 2.17 2.17 0.0 0 0 86.4614 114.8523
  L 94.1920 110.6898
  A 2.17 2.17 0.0 0 0 95.0739 107.7504
  L 94.9980 107.6095
  Z
  M 61.6411 117.5199
  A 2.13 2.13 0.0 0 0 59.9004 115.0615
  L 51.1277 113.5620
  A 2.13 2.13 0.0 0 0 48.6692 115.3026
  L 48.6389 115.4801
  A 2.13 2.13 0.0 0 0 50.3796 117.9385
  L 59.1523 119.4380
  A 2.13 2.13 0.0 0 0 61.6108 117.6974
  L 61.6411 117.5199
  Z
  M 79.0762 115.1961
  A 2.08 2.08 0.0 0 0 76.6725 113.5005
  L 67.9615 115.0052
  A 2.08 2.08 0.0 0 0 66.2659 117.4088
  L 66.3238 117.7439
  A 2.08 2.08 0.0 0 0 68.7275 119.4395
  L 77.4385 117.9348
  A 2.08 2.08 0.0 0 0 79.1341 115.5312
  L 79.0762 115.1961
  Z"
/>
<rect fill="#ffffff" x="-6.44" y="-2.24" transform="translate(63.75,10.58) rotate(-0.5)" width="12.88" height="4.48" rx="1.93"/>
<rect fill="#ffffff" x="-6.54" y="-2.24" transform="translate(46.45,13.50) rotate(-19.3)" width="13.08" height="4.48" rx="2.12"/>
<rect fill="#ffffff" x="-6.58" y="-2.24" transform="translate(81.10,13.44) rotate(18.8)" width="13.16" height="4.48" rx="2.15"/>
<rect fill="#ffffff" x="-6.55" y="-2.25" transform="translate(31.05,21.88) rotate(-37.8)" width="13.10" height="4.50" rx="2.17"/>
<rect fill="#ffffff" x="-6.54" y="-2.24" transform="translate(96.53,21.77) rotate(38.0)" width="13.08" height="4.48" rx="2.16"/>
<rect fill="#ffffff" x="-2.25" y="-6.50" transform="translate(108.44,34.63) rotate(-33.0)" width="4.50" height="13.00" rx="2.05"/>
<rect fill="#ffffff" x="-2.25" y="-6.55" transform="translate(19.20,34.80) rotate(33.5)" width="4.50" height="13.10" rx="2.09"/>
<path fill="#ffffff" d="
  M 80.44 49.99
  C 96.19 50.14 104.11 67.30 94.77 79.05
  C 90.16 84.85 84.63 85.76 76.88 85.76
  Q 63.35 85.74 49.83 85.75
  Q 41.74 85.76 38.37 84.28
  C 32.48 81.69 28.95 76.05 29.20 69.48
  Q 29.71 56.27 44.17 53.86
  Q 44.67 53.78 44.69 53.27
  C 45.62 31.86 75.08 28.69 79.78 49.45
  Q 79.90 49.98 80.44 49.99
  Z"
/>
<rect fill="#ffffff" x="-2.25" y="-6.56" transform="translate(115.53,50.69) rotate(-14.1)" width="4.50" height="13.12" rx="2.09"/>
<rect fill="#ffffff" x="-2.24" y="-6.53" transform="translate(12.16,50.85) rotate(14.2)" width="4.48" height="13.06" rx="2.07"/>
<rect fill="#ffffff" x="-2.24" y="-6.57" transform="translate(117.01,68.31) rotate(4.8)" width="4.48" height="13.14" rx="2.04"/>
<rect fill="#ffffff" x="-2.23" y="-6.43" transform="translate(10.74,68.41) rotate(-4.6)" width="4.46" height="12.86" rx="1.94"/>
<rect fill="#ffffff" x="-2.25" y="-6.52" transform="translate(112.71,85.31) rotate(23.7)" width="4.50" height="13.04" rx="2.10"/>
<rect fill="#ffffff" x="-2.24" y="-6.54" transform="translate(15.07,85.37) rotate(-23.6)" width="4.48" height="13.08" rx="2.10"/>
<rect fill="#ffffff" x="-2.24" y="-6.58" transform="translate(24.69,100.03) rotate(-42.7)" width="4.48" height="13.16" rx="2.16"/>
<rect fill="#ffffff" x="-2.23" y="-6.51" transform="translate(103.11,99.99) rotate(42.8)" width="4.46" height="13.02" rx="1.97"/>
<rect fill="#ffffff" x="-6.59" y="-2.24" transform="translate(38.53,110.81) rotate(28.4)" width="13.18" height="4.48" rx="2.17"/>
<rect fill="#ffffff" x="-6.56" y="-2.25" transform="translate(89.26,110.79) rotate(-28.3)" width="13.12" height="4.50" rx="2.17"/>
<rect fill="#ffffff" x="-6.58" y="-2.22" transform="translate(55.14,116.50) rotate(9.7)" width="13.16" height="4.44" rx="2.13"/>
<rect fill="#ffffff" x="-6.50" y="-2.25" transform="translate(72.70,116.47) rotate(-9.8)" width="13.00" height="4.50" rx="2.08"/>
</svg>
